<svg width="48" height="48" viewBox="0 0 48 48" fill="none" xmlns="http://www.w3.org/2000/svg">
<path d="M3.87804 26.1198C2.70732 24.9491 2.70732 23.0509 3.87804 21.8802L21.8802 3.87804C23.0509 2.70732 24.9491 2.70732 26.1198 3.87804L44.122 21.8802C45.2927 23.0509 45.2927 24.9491 44.122 26.1198L26.1198 44.122C24.9491 45.2927 23.0509 45.2927 21.8802 44.122L3.87804 26.1198Z" fill="#EE513B"/>
<path d="M18.2239 7.59247L16.4009 9.41548L21.1093 14.1238C20.9189 14.5325 20.8125 14.9882 20.8125 15.4688C20.8125 16.8331 21.6697 17.9973 22.875 18.452V29.9698C21.6697 30.4246 20.8125 31.5887 20.8125 32.9531C20.8125 34.7135 22.2396 36.1406 24 36.1406C25.7604 36.1406 27.1875 34.7135 27.1875 32.9531C27.1875 31.7162 26.4829 30.6437 25.4531 30.1154V18.4677L29.9539 22.9685C29.7727 23.3688 29.6719 23.8132 29.6719 24.2813C29.6719 26.0417 31.099 27.4688 32.8594 27.4688C34.6198 27.4688 36.0469 26.0417 36.0469 24.2813C36.0469 22.5208 34.6198 21.0938 32.8594 21.0938C32.5173 21.0938 32.1878 21.1476 31.8789 21.2474L27.0451 16.4136C27.1377 16.1151 27.1875 15.7977 27.1875 15.4688C27.1875 13.7083 25.7604 12.2813 24 12.2813C23.671 12.2813 23.3537 12.3311 23.0551 12.4236L18.2239 7.59247Z" fill="white"/>
</svg>
