<svg width="89" height="100" viewBox="0 0 89 100" fill="none" xmlns="http://www.w3.org/2000/svg">
<path d="M44.1916 0L-3.8147e-05 25V75L44.1916 100L88.3833 75V25L44.1916 0Z" fill="white"/>
<path d="M7.89172 73.2749L42.7334 92.9833V77.6333L21.0251 65.6916L7.89172 73.2749ZM5.50839 71.1166V29.8999L18.2584 37.2583V63.7499L5.50839 71.1166ZM80.6334 73.2749L45.7917 92.9833V77.6333L67.5001 65.6916L80.6334 73.2749ZM83.0167 71.1166V29.8999L70.2667 37.2583V63.7499L83.0167 71.1166ZM81.5251 27.2333L45.7917 7.0166V21.8583L68.6834 34.4499L68.8584 34.5499L81.5251 27.2333ZM7.00005 27.2333L42.7334 7.0166V21.8583L19.8417 34.4499L19.6667 34.5499L7.00005 27.2333Z" fill="#8ED6FB"/>
<path d="M45.7916 74.1416L67.2083 62.3666V39.0333L45.7916 51.4V74.1416ZM42.7333 74.1416L21.3166 62.3666V39.0333L42.7333 51.4V74.1416ZM65.7583 36.3333L44.2583 24.5083L22.7583 36.3333L44.2583 48.75L65.7583 36.3333Z" fill="#1C78C0"/>
</svg>
