<svg width="850" height="15" viewBox="0 0 850 15" fill="none" xmlns="http://www.w3.org/2000/svg">
<path d="M0 1.48291H850V5.98868C850 5.98868 811.289 15.0002 767.361 15.0002C723.433 15.0002 126.567 14.5496 82.6389 14.5496C38.7112 14.5496 0 5.98868 0 5.98868V1.48291Z" fill="url(#paint0_linear_239_6)"/>
<path d="M0 2.98242C0 1.87785 0.895431 0.982422 2 0.982422H848C849.105 0.982422 850 1.87785 850 2.98242V5.98877H0V2.98242Z" fill="url(#paint1_linear_239_6)"/>
<path d="M361.854 0.982422H488.695V0.982422C488.695 3.74735 486.454 5.98877 483.689 5.98877H366.86C364.095 5.98877 361.854 3.74735 361.854 0.982422V0.982422Z" fill="url(#paint2_linear_239_6)"/>
<defs>
<linearGradient id="paint0_linear_239_6" x1="425" y1="1.48291" x2="425" y2="15.0002" gradientUnits="userSpaceOnUse">
<stop stop-color="#80868A"/>
<stop offset="1" stop-color="#2A2C2F"/>
</linearGradient>
<linearGradient id="paint1_linear_239_6" x1="1.78545e-06" y1="3.48514" x2="850" y2="3.48514" gradientUnits="userSpaceOnUse">
<stop stop-color="#2A2C2F"/>
<stop offset="0.208333" stop-color="#80868A"/>
<stop offset="0.770833" stop-color="#80868A"/>
<stop offset="1" stop-color="#2A2C2F"/>
</linearGradient>
<linearGradient id="paint2_linear_239_6" x1="361.854" y1="3.4856" x2="488.695" y2="3.48561" gradientUnits="userSpaceOnUse">
<stop stop-color="#2A2C2F"/>
<stop offset="0.229167" stop-color="#80868A"/>
<stop offset="0.802083" stop-color="#80868A"/>
<stop offset="1" stop-color="#2A2C2F"/>
</linearGradient>
</defs>
</svg>
