<svg width="690" height="467" viewBox="0 0 690 467" fill="none" xmlns="http://www.w3.org/2000/svg">
<path d="M0.72998 7.99999C0.72998 3.58171 4.3117 0 8.72998 0H681.296C685.714 0 689.296 3.58172 689.296 8V458.342C689.296 462.761 685.714 466.342 681.296 466.342H8.72996C4.31168 466.342 0.72998 462.761 0.72998 458.342V7.99999Z" fill="#B9B9B9"/>
<path d="M6.0675 12.3686C6.0675 7.95037 9.64923 4.36865 14.0675 4.36865H676.2C680.619 4.36865 684.2 7.95037 684.2 12.3687V439.776C684.2 444.194 680.619 447.776 676.2 447.776H14.0675C9.64921 447.776 6.0675 444.194 6.0675 439.776V12.3686Z" fill="black"/>
</svg>
