<svg width="372" height="208" viewBox="0 0 372 208" fill="none" xmlns="http://www.w3.org/2000/svg">
<path d="M35.3312 8C35.3312 3.58172 38.913 0 43.3312 0H328.68C333.098 0 336.68 3.58172 336.68 8V196.209C336.68 200.627 333.098 204.209 328.68 204.209H43.3312C38.913 204.209 35.3312 200.627 35.3312 196.209V8Z" fill="#B9B9B9"/>
<path d="M37.6672 9.91283C37.6672 5.49455 41.2489 1.91284 45.6672 1.91284H326.45C330.868 1.91284 334.45 5.49456 334.45 9.91284V188.079C334.45 192.497 330.868 196.079 326.45 196.079H45.6672C41.2489 196.079 37.6672 192.497 37.6672 188.079V9.91283Z" fill="black"/>
<path d="M0 202.081H372V204.054C372 204.054 355.058 208 335.833 208C316.609 208 55.3915 207.803 36.1667 207.803C16.9419 207.803 0 204.054 0 204.054V202.081Z" fill="url(#paint0_linear_19_6)"/>
<path d="M0 203.862C0 202.757 0.895431 201.862 2 201.862H370C371.105 201.862 372 202.757 372 203.862V204.054H0V203.862Z" fill="url(#paint1_linear_19_6)"/>
<path d="M158.364 201.862H213.876C213.876 203.072 212.894 204.054 211.684 204.054H160.557C159.346 204.054 158.364 203.072 158.364 201.862Z" fill="url(#paint2_linear_19_6)"/>
<defs>
<linearGradient id="paint0_linear_19_6" x1="186" y1="202.081" x2="186" y2="208" gradientUnits="userSpaceOnUse">
<stop stop-color="#80868A"/>
<stop offset="1" stop-color="#2A2C2F"/>
</linearGradient>
<linearGradient id="paint1_linear_19_6" x1="7.81398e-07" y1="202.958" x2="372" y2="202.958" gradientUnits="userSpaceOnUse">
<stop stop-color="#2A2C2F"/>
<stop offset="0.208333" stop-color="#80868A"/>
<stop offset="0.770833" stop-color="#80868A"/>
<stop offset="1" stop-color="#2A2C2F"/>
</linearGradient>
<linearGradient id="paint2_linear_19_6" x1="158.364" y1="202.958" x2="213.876" y2="202.958" gradientUnits="userSpaceOnUse">
<stop stop-color="#2A2C2F"/>
<stop offset="0.229167" stop-color="#80868A"/>
<stop offset="0.802083" stop-color="#80868A"/>
<stop offset="1" stop-color="#2A2C2F"/>
</linearGradient>
</defs>
</svg>
